
<global>
amp_veltrack=0
ampeg_release=0.25
</global>

<group>
group_label=Group_0-42
lpc_hicc1=42
lpc_locc1=0

<region>
hikey=a3
hivel=127
lokey=g#3
loop_end=143230
loop_mode=loop_continuous
loop_start=62310
loop_xfade=17586
lovel=1
lpc=1wY7QgiDqsIUqj1C4CvSwemMwEE27UTBvV0yQWaXLsH3yBZBi7Ygv30v08C0pkZBgvs2wZ3JVz+Vxy/AwFbPQOhe5T6szFvABjZCwB1Uc0Df7K2/LbU0QMYSpb6HjEm/
lpc_rms=-24.89
offset=2916
pitch_keycenter=a3
sample=Alto_shake_PP_A3.opus
</region>

<region>
hikey=a4
hivel=127
lokey=g#4
loop_end=140713
loop_mode=loop_continuous
loop_start=61215
loop_xfade=17277
lovel=1
lpc=FDw6QiFD4cKkIrxCvUIewvbPzEELd4rBzAK1QGb9J8GPtoNBBYplwO5NycDf0YBAN5zkwLmTTEBexsNA1SqQv9gtR794IaPAat0kQJ/woEC/u6PAi2tKQJbo5cBklbJA
lpc_rms=-22.96
offset=4111
pitch_keycenter=a4
sample=Alto_shake_PP_A4.opus
</region>

<region>
hikey=b3
hivel=127
lokey=a#3
loop_end=149499
loop_mode=loop_continuous
loop_start=65037
loop_xfade=18356
lovel=1
lpc=vH0UQjGHfsIIIAFCxUqKwe2Qg0EhbQPBSEOdQFOdmsBpiatAQ2QXQBIr08Bav5pA+CSYwBoVQT/hPJY/craTP8QyHL8zYuO/V8cAPx54T0ArMl/AgK+PQEOLh8AOAro/
lpc_rms=-25.23
offset=4953
pitch_keycenter=b3
sample=Alto_shake_PP_B3.opus
</region>

<region>
hikey=b4
hivel=127
lokey=a#4
loop_end=145173
loop_mode=loop_continuous
loop_start=63155
loop_xfade=17825
lovel=1
lpc=45CRQXzEGcKiptdB8U0WwXkHFUEObPvAW/MSQBd/HMBJklZAk00xP+LEO8C4+Ks/VpbXv0/63z8u510/2QQBv6itHT7yjBXAuoIZQGmn1rvVUdO+ZsuCPx50/7/GqKk/
lpc_rms=-27.89
offset=2826
pitch_keycenter=b4
sample=Alto_shake_PP_B4.opus
</region>

<region>
hikey=c#4
hivel=127
lokey=c4
loop_end=141226
loop_mode=loop_continuous
loop_start=61438
loop_xfade=17340
lovel=1
lpc=DfTlQeYDb8KBxy9C1eTewXGXzkGdJUbBZpqJQE+L4cAM7lZAy2NmQBOdED9aoZTAvu6DP7J+3L/qjj9A5bkUQDwG0sBxTy1A7zoFPxa7K0Do01jAY2o7QNEFG8DHPC0/
lpc_rms=-25.11
offset=5125
pitch_keycenter=c#4
sample=Alto_shake_PP_C#4.opus
</region>

<region>
hikey=c#5
hivel=127
lokey=c5
loop_end=140823
loop_mode=loop_continuous
loop_start=61263
loop_xfade=17290
lovel=1
lpc=5mqLQRZWG8Lo5w1C8qqvwdEggUE9LCfBqLaqQIvkqsAt/8xAC+9pwNr0f0D0l+vALBXTQCfSw8Dz4w9BScTWwNSnSUABgAfAkCUKQOF6n7/qpUq9nlCBv7QFHUA8SwO/
lpc_rms=-26.57
offset=4515
pitch_keycenter=c#5
sample=Alto_shake_PP_C#5.opus
</region>

<region>
hivel=127
key=d#3
loop_end=151898
loop_mode=loop_continuous
loop_start=66081
loop_xfade=18650
lovel=1
lpc=yFqLQYkV3MHxWSlBEnTcwCv0B0GMkUO9oXHtv6PtVsAO5bFA2FSEPsQZi8DfEzhA8y4nwG6Ixj9O4rq9fNsQP6p7q796t6c//GuXvy7YHz4UQMU/73iQv9juKz6lIwQ+
lpc_rms=-26.44
offset=4118
sample=Alto_shake_PP_D#3.opus
</region>

<region>
hikey=d#4
hivel=127
lokey=d4
loop_end=144052
loop_mode=loop_continuous
loop_start=62668
loop_xfade=17687
lovel=1
lpc=BcoKQtgGn8LnCo9CBnE5wt4yEEJmu9XBxEdpQVtJOsGDszhBmWV8QEKcMcE061JAFN6DPm3jfj9pZzS/6Y5EwMdAjkDg8uXAOcw4QWSXJ8EW5+pAqzh4wJAIMD4elIY/
lpc_rms=-27.48
offset=147
pitch_keycenter=d#4
sample=Alto_shake_PP_D#4.opus
</region>

<region>
hikey=d#5
hivel=127
lokey=d5
loop_end=139652
loop_mode=loop_continuous
loop_start=60754
loop_xfade=17146
lovel=1
lpc=nYisQbgnTMJABVtCmekhwjOU9kHIaKnBG/ASQbMWwMBbEuBAi4lZQJ5uN8HtFf1ALn+XwHPBIUGPH1LBmvNIQUaZDsF9Kx+7adTOQL91isBO/oQ/TQmGPxonK7/wLmE/
lpc_rms=-24.21
offset=194
pitch_keycenter=d#5
sample=Alto_shake_PP_D#5.opus
</region>

<region>
hikey=f3
hivel=127
lokey=e3
loop_end=139758
loop_mode=loop_continuous
loop_start=60800
loop_xfade=17159
lovel=1
lpc=9ta2QeysG8Kk24RBgH7OwADY70B8VL6/tmCHP2mxlcDqDq5AR6nSP5QIhcAjqPQ/hpZSwKvc7z8EkuW9/jfMPsGlnT/CGKK/CFAxP9c6VL/c6Ji+9LzBP/MAzr+9Pys/
lpc_rms=-27.33
offset=7197
pitch_keycenter=f3
sample=Alto_shake_PP_F3.opus
</region>

<region>
hikey=f4
hivel=127
lokey=e4
loop_end=144370
loop_mode=loop_continuous
loop_start=62806
loop_xfade=17726
lovel=1
lpc=al1NQmIo4sL7faNCDVvywZRp1kEersHB2GtwQY4hgcFJ2otB1+MSwZq0mj+oFt++yB0dwFKmRUAWcR0/LIRBQB9pU8CKeqS/zEl0Pu6cob/NL5BAnGsOwPs93b/I/wpA
lpc_rms=-20.39
offset=5191
pitch_keycenter=f4
sample=Alto_shake_PP_F4.opus
</region>

<region>
hikey=f5
hivel=127
lokey=e5
loop_end=145184
loop_mode=loop_continuous
loop_start=63160
loop_xfade=17826
lovel=1
lpc=rJzUQfQJbMJi01lCafDiwYdbgUHSNSfBKl+JQJ9FysBHVm9BWroXwQMUfb+AoW2/CtISQR40IcGdWx5BbAkYwWNR90DQ7YDANt44QLEhiMBvqgRBM0IowdPuK0GM06TA
lpc_rms=-22.08
pitch_keycenter=f5
sample=Alto_shake_PP_F5.opus
</region>

<region>
hikey=g3
hivel=127
lokey=f#3
loop_end=147036
loop_mode=loop_continuous
loop_start=63966
loop_xfade=18053
lovel=1
lpc=RRUVQmD/j8InLBlC9UU0wRSDPEEaqbe/QDmRwBrUA8BRF5xAh/77QPg9LMH8aIdA3rzywNqW7kBXVTTAWgAcQD22E8Ab/pm/nUE8QMOYbL977+a/YiG+QG2hwMB8R/M/
lpc_rms=-21.70
offset=1989
pitch_keycenter=g3
sample=Alto_shake_PP_G3.opus
</region>

<region>
hikey=g4
hivel=127
lokey=f#4
loop_end=148284
loop_mode=loop_continuous
loop_start=64509
loop_xfade=18206
lovel=1
lpc=u6tDQmkA0sJpJolCNlGPwb4WUkH0bgjB/q1MQCN8u8BW+8FA1y6/QBf6CcHmwxBAlMQPwZHJ20A3GB6/wTeiQCIdbcD/QSpAv78NwEc79D48RQ4+NGjDv5R2T8Al1o9A
lpc_rms=-23.07
offset=2592
pitch_keycenter=g4
sample=Alto_shake_PP_G4.opus
</region>

<region>
hikey=B5
hivel=127
lokey=f#5
loop_end=133629
loop_mode=loop_continuous
loop_start=58133
loop_xfade=16407
lovel=1
lpc=eEA2QadNycELhb5BEgBKwZNb20AMG7bAFya3QF2OmsB1XKJAd7xCwDUpTr9K7VtAGd6Ev9EoZb9SnY2+BwEqQHjixr81cTw/k60lv68vij/k47u/dvpYQG0Ld8AQweg/
lpc_rms=-21.91
offset=7740
pitch_keycenter=G5
sample=Alto_shake_PP_G5.opus
</region>
</group>

<group>
group_label=Group_43-84
lpc_hicc1=84
lpc_locc1=43

<region>
hikey=a3
hivel=127
lokey=g#3
loop_end=144815
loop_mode=loop_continuous
loop_start=63000
loop_xfade=17780
lovel=1
lpc=EmXqQY5Tj8KgRntCB4bJwSRjK0GXFxrB6rn4QBwAWsERzmFBqyYJQI3OYcGJl1JB4SAfwUonn0Dxvca/cJjNQJwT4MB0BzbAVK6NQDorvr9yi45AId3ovwgDVMD6NxFA
lpc_rms=-15.89
offset=4543
pitch_keycenter=a3
sample=Alto_shake_MF_A3.opus
</region>

<region>
hikey=a4
hivel=127
lokey=g#4
loop_end=146059
loop_mode=loop_continuous
loop_start=63541
loop_xfade=17933
lovel=1
lpc=m4+RQQ9nVsKjYJFCXVuDwnHUPkIL+MjB/hCBQKHupb7tcg9B9hjBwORNusDDzEdBK+qEwagFoUEtHovB7Gk2QWPxsMA3j2K/1EXSQBRfAMHkvppA4/ZLPnK3ZsDV/RlA
lpc_rms=-15.06
offset=5418
pitch_keycenter=a4
sample=Alto_shake_MF_A4.opus
</region>

<region>
hikey=B5
hivel=127
lokey=g#5
loop_end=153898
loop_mode=loop_continuous
loop_start=66951
loop_xfade=18896
lovel=1
lpc=TeUjQbBfqcGHjK1B8aZUwaGd+UDXXc/ARaAGQcTs58BirMZAnHIWwAvSxT5MV7I/zNSpvz1BBkDRx8y/GY5CQEMHm7/OQg6/CRQkQHiDvr9ZFMA/COH6vxqqEz9xP4M/
lpc_rms=-15.36
offset=4998
pitch_keycenter=A5
sample=Alto_shake_MF_A5.opus
</region>

<region>
hikey=b3
hivel=127
lokey=a#3
loop_end=147005
loop_mode=loop_continuous
loop_start=65194
loop_xfade=18400
lovel=1
lpc=msnCQa2EVcL3vCNC1U51wcnbHkEfBg7BvEz5P6NZ3L8C8M4/qVEKQbpFYcF4YdpAanxWwPF9wEA35ZPAc+kxQJBUZsC9Mro/pGdTQLGEOsCOAzS/8e3tP+wHpr94IUk/
lpc_rms=-17.55
offset=5389
pitch_keycenter=b3
sample=Alto_shake_MF_B3.opus
</region>

<region>
hikey=b4
hivel=127
lokey=a#4
loop_end=152621
loop_mode=loop_continuous
loop_start=66396
loop_xfade=18739
lovel=1
lpc=+CHoQCNxh8EYuJlBSAt7wb3HKUHwb6TA5LP8PwWbYMB6pN1AIUzcwIM/jEBy4wbAtjCBPYs8BkCovlHAmm4pQJUM478lD7A/eDJPvuRFfL6ngtA9ZG8pP2Huer8aUBc/
lpc_rms=-19.08
offset=5013
pitch_keycenter=b4
sample=Alto_shake_MF_B4.opus
</region>

<region>
hikey=c#4
hivel=127
lokey=c4
loop_end=139367
loop_mode=loop_continuous
loop_start=60630
loop_xfade=17111
lovel=1
lpc=QL91QS/yHcLpjC9Cs8H4wRcBk0EQ8SXBYpSvQJ3DscDng+VAL+VdwLx67r9c/xtAn2SpvVEV8r6hIBm/t6WePyoH0L+ERZy+XOLiP/aRhr/gVeE/05DQv07TUT9qPZ2+
lpc_rms=-19.06
offset=4951
pitch_keycenter=c#4
sample=Alto_shake_MF_C#4.opus
</region>

<region>
hikey=c#5
hivel=127
lokey=c5
loop_end=149498
loop_mode=loop_continuous
loop_start=65037
loop_xfade=18355
lovel=1
lpc=FHq7QCPAPMHKF0pBMV8uwZbiBEG6QIHAFSCrP7VR8L87GkhAMhQdwHOZ7j9p68O/71eOPoXCrj/az+G/3ZXzPxZarL9NU2o+o0aeP+Z5q7+vtJk/LY1Yv2wHFT+PZRM+
lpc_rms=-18.23
offset=4142
pitch_keycenter=c#5
sample=Alto_shake_MF_C#5.opus
</region>

<region>
hivel=127
key=d#3
loop_end=151002
loop_mode=loop_continuous
loop_start=65691
loop_xfade=18540
lovel=1
lpc=Lq+mQTvvT8LE0URCPi/HwUqrPUFWEqrAqeHCvwStFsCgrj5B+BMRwfnzyb7bfBdAQ19gvxC+gj/ACiw/czIkwNR6fD938Os++S7Iv/+XKkAZ1Ce+5LdWv09ZGL/ONe0+
lpc_rms=-17.58
offset=9762
sample=Alto_shake_MF_D#3.opus
</region>

<region>
hikey=d#4
hivel=127
lokey=d4
loop_end=140842
loop_mode=loop_continuous
loop_start=70428
loop_xfade=17259
lovel=1
lpc=yQCPQS0yRsIeAHFCOKkzwhqNvUFTjd3AjNhHwN/oxT8+q7BAnQ9zwB5aocCaQilB07I+waxiQEHoxBjBzMbbQM88AMFhyKFAjwAXQDz2aMDNRZ0/nrS1v8UkHUCwW4u/
lpc_rms=-21.74
offset=5059
pitch_keycenter=d#4
sample=Alto_shake_MF_D#4.opus
</region>

<region>
hikey=d#5
hivel=127
lokey=d5
loop_end=144091
loop_mode=loop_continuous
loop_start=62685
loop_xfade=17692
lovel=1
lpc=3vSPQNSZB8FskBBBGmXnwDf9pEAZ3lHAeQQGQOI5B8D6+T1A8V0awMIboj/migg+C3klvz3Ppz8hlKu/cyCJP1r1o75bbvC8/8ngvJ3LCT8ut02/qHJ7P55J1b4EKQo/
lpc_rms=-19.64
offset=5660
pitch_keycenter=d#5
sample=Alto_shake_MF_D#5.opus
</region>

<region>
hikey=f3
hivel=127
lokey=e3
loop_end=149662
loop_mode=loop_continuous
loop_start=65108
loop_xfade=18376
lovel=1
lpc=zR6iQTDHN8IegBJCNSuHwTo4PkFz/7DAzjyLv61Nb8DOcP5AvIfDPTgd1MCdPphA3B+RwFropkDqAyfAUJblP+CTHsBigfs9xSadP6WwnL/6RVtAuyYtwLfWBj9zgP69
lpc_rms=-18.40
offset=8062
pitch_keycenter=f3
sample=Alto_shake_MF_F3.opus
</region>

<region>
hikey=f4
hivel=127
lokey=e4
loop_end=152185
loop_mode=loop_continuous
loop_start=66206
loop_xfade=18685
lovel=1
lpc=j2qsQc3HUsI/oFBCl5sBwpazp0Hv+E/BVPIBQQQ3gsECB8JBZzB2we8mBEA0zic/fh2vP88x4r/ZQHlAdknCwHUGIkAAOtg9knakQLFgEMHi8OZAgPqKwPO90z9lhZE+
lpc_rms=-14.48
offset=4267
pitch_keycenter=f4
sample=Alto_shake_MF_F4.opus
</region>

<region>
hikey=f5
hivel=127
lokey=e5
loop_end=132162
loop_mode=loop_continuous
loop_start=57495
loop_xfade=16227
lovel=1
lpc=R8AIQR54i8GfXJ1BuiiGwS2gZUGr7ijBVSrDQM7gf8B/Tb1AsXSxwP58hUA/JXHAM/mDQE4G17/bpKa+K2AXQFhAF8C5vQtAI6kTvuWaR78LmZI/TO7XvmI1wr594XM/
lpc_rms=-15.82
offset=33
pitch_keycenter=f5
sample=Alto_shake_MF_F5.opus
</region>

<region>
hikey=g3
hivel=127
lokey=f#3
loop_end=153402
loop_mode=loop_continuous
loop_start=66735
loop_xfade=18835
lovel=1
lpc=qogYQlW6tMLTcZNCYfkHwqKbt0GqCvrAEnV5wD9MvcC1ITJBLw6rPz6LKMFoKAZBsLgIwdQ1MUEDr6/AilENQPoHicBJM0/AdAb4QEO9JsBwhO4/1yePv0klQ78Byo8+
lpc_rms=-16.47
offset=6049
pitch_keycenter=g3
sample=Alto_shake_MF_G3.opus
</region>

<region>
hikey=g4
hivel=127
lokey=f#4
loop_end=147616
loop_mode=loop_continuous
loop_start=64218
loop_xfade=18124
lovel=1
lpc=uxh/QYh6J8IrdzxCc+4Jwv/LukHBVIPBn85BQdqcX8FOl4FBvUgVwS/pK0B0i9q/iLqPP2PSBcAVfFRAdNHCvuoAs8C2RwBBq3OUwBMc2b6Hd75A1zH7wD/ii0BzfE+/
lpc_rms=-14.25
offset=3103
pitch_keycenter=g4
sample=Alto_shake_MF_G4.opus
</region>

<region>
hikey=g5
hivel=127
lokey=f#5
loop_end=133136
loop_mode=loop_continuous
loop_start=57919
loop_xfade=16346
lovel=1
lpc=u7YOQTspmMG9OpRB6f8bwe+nZ0DsuLu/NEoBQIJiN8C6natAofqmwHV4uD/TKjtAh0ISwB69QD+spEO+UgZPPkNNmD9Oniu/ZcKsvtkSqD/PLde/1NZZQNcoV8A5Lao/
lpc_rms=-18.20
offset=5948
pitch_keycenter=g5
sample=Alto_shake_MF_G5.opus
</region>
</group>

<group>
group_label=Group_85-127
lpc_hicc1=127
lpc_locc1=85

<region>
hikey=a3
hivel=127
lokey=g#3
loop_end=149373
loop_mode=loop_continuous
loop_start=64983
loop_xfade=18340
lovel=1
lpc=oNR4QQRuJsJXxkdCkooZwkRemEFyIjjA9knrv+SNycBOe4VBOkxwwZp/PkDkYQZBKRZGwa4yEUGXGC/AhNuIvyxf+7/fF+VAOvoYwbGAFEEPT53AnzEzvkSBzT8xBh+/
lpc_rms=-14.98
offset=5639
pitch_keycenter=a3
sample=Alto_shake_FF_A3.opus
</region>

<region>
hikey=a4
hivel=127
lokey=g#4
loop_end=144475
loop_mode=loop_continuous
loop_start=62852
loop_xfade=17739
lovel=1
lpc=BjsDQSCSncG+97JBEEyZwd0YgUGhLE7B3YMUQX0zE8HIkTFBJQESwY5XoEA7rJu/C94nwNpMykAPt/PAT8zLQMpDjsDXrIFAsH1swECsG0BxAPu/sMQVQGtGGsA/npk/
lpc_rms=-10.09
offset=6490
pitch_keycenter=a4
sample=Alto_shake_FF_A4.opus
</region>

<region>
hikey=B5
hivel=127
lokey=g#5
loop_end=145939
loop_mode=loop_continuous
loop_start=63489
loop_xfade=17918
lovel=1
lpc=xrXWQMiOVMELJj5BiJXewF27dkCOFOi/IM5IPzYIf78t2D1AvX8ZwPcwKD3m8M0/ki8LwE/dPEBU6yXAG4ATQL+Ep79BV2s+EKihP1mv0r/qllE/LbYePkTeur8Ldak/
lpc_rms=-14.60
offset=5213
pitch_keycenter=A5
sample=Alto_shake_FF_A5.opus
</region>

<region>
hikey=b3
hivel=127
lokey=a#3
loop_end=144183
loop_mode=loop_continuous
loop_start=62725
loop_xfade=17703
lovel=1
lpc=wMBrQeA+D8Ke8RNCIACkwTl3X0AA4oBAMFIbwOCglcD2YwlBgZOLwCvTzL+LJq8/i6xyQDfA/MB+KvBAHfqOwHVqgT+wJiBAZ9eewO7/IUBW2xhA+KsOwDTLOD63kaQ+
lpc_rms=-16.49
offset=3851
pitch_keycenter=b3
sample=Alto_shake_FF_B3.opus
</region>

<region>
hikey=b4
hivel=127
lokey=a#4
loop_end=148395
loop_mode=loop_continuous
loop_start=64557
loop_xfade=18220
lovel=1
lpc=3HuRQOBKEsHGdRZBaYTuwKXdqEDQZ0vACqj+P89wIMAieI5AYGGfwGl6kUA2E3PAhQ8GQE+dc77tdoW/gRvEPzPXfb/VWfy9jEK8PzBAr7/P7io/iS3KPiEUiL+7+UU/
lpc_rms=-14.91
offset=4929
pitch_keycenter=b4
sample=Alto_shake_FF_B4.opus
</region>

<region>
hikey=c#4
hivel=127
lokey=c4
loop_end=142069
loop_mode=loop_continuous
loop_start=61805
loop_xfade=17443
lovel=1
lpc=lWsRQQr4psHhM61BLAN7we8rFEFBYn3AHv7DP0OebsDrh65A+nSnv/F5h8B/7rtA1y+twP0pr0CuLJjAkkpuQBZRi8BWJV1AvJyvvyL9uj6he1g+Cnq+vRHq2j5aTpO+
lpc_rms=-16.20
offset=1796
pitch_keycenter=c#4
sample=Alto_shake_FF_C#4.opus
</region>

<region>
hikey=c#5
hivel=127
lokey=c5
loop_end=144855
loop_mode=loop_continuous
loop_start=63017
loop_xfade=17785
lovel=1
lpc=ycmIQGux+sCN/fdABMbHwFLxiUAd1AbAc97aP2uUVMBGWahATC6mwCzbfUA+USDAaEuPPwJTQTtSJ2W+NvYnPonMkzyYFsc+wKiLu1F2qr78tQI/ShMIv2Cx2D6cEU8+
lpc_rms=-14.64
offset=4850
pitch_keycenter=c#5
sample=Alto_shake_FF_C#5.opus
</region>

<region>
hivel=127
key=d#3
loop_end=148440
loop_mode=loop_continuous
loop_start=64577
loop_xfade=18225
lovel=1
lpc=5jRIQcSB+8Gs1AhC7pbHwSdgfkEGofTAsFn1Py0hocCL+z1BcO4pwRAFUkBG0GVA3QAQwV+5LEEXOvrA/S1gQHkY+b+GPrI/3H42P8XHU78rTcW+yEpivQNCYT/xjwS/
lpc_rms=-14.08
offset=13555
sample=Alto_shake_FF_D#3.opus
</region>

<region>
hikey=d#4
hivel=127
lokey=d4
loop_end=149318
loop_mode=loop_continuous
loop_start=64959
loop_xfade=18333
lovel=1
lpc=ORsCQY4OocGxP8JBCcGtwTy1hkG8QEPBllIlQZ2uU8HXP4ZBwrN1wUF3HkGI5oPAKdDKPk22aT8EUG4/XGtVwHlP3z9Ahks/jBPCv6dR6z/wpre/kxc1PG06mT99zSG/
lpc_rms=-18.36
offset=3695
pitch_keycenter=d#4
sample=Alto_shake_FF_D#4.opus
</region>

<region>
hikey=d#5
hivel=127
lokey=d5
loop_end=151288
loop_mode=loop_continuous
loop_start=65816
loop_xfade=18575
lovel=1
lpc=ZSODQDJT8MCbz/VA/4XFwKmolkA3vzbAXMzXP87ZGMDE3INALf5ywIU+FUB1DZu/5xJLP9xICT/Ipoa/neyLP7f6g7+Nw5M/uec1vzzMvj6HotS+SsIPP92v1jwxdYU+
lpc_rms=-16.66
offset=5415
pitch_keycenter=d#5
sample=Alto_shake_FF_D#5.opus
</region>

<region>
hikey=f3
hivel=127
lokey=e3
loop_end=150444
loop_mode=loop_continuous
loop_start=72124
loop_xfade=9711
lovel=1
lpc=ZTdUQXdBCsLqrSJCO530wUnFi0GFICnBY6AVQXyGQsE+kmxB9P4kwWDowz+VNqVAoMzVwLvefUAUbj6/Tnqmv9OyNkD+jqDAEdOiQK1QMsA6q01Az22MwBj3X0CGa6K/
lpc_rms=-15.89
offset=5850
pitch_keycenter=f3
sample=Alto_shake_FF_F3.opus
</region>

<region>
hikey=f4
hivel=127
lokey=e4
loop_end=152255
loop_mode=loop_continuous
loop_start=66237
loop_xfade=18694
lovel=1
lpc=pz4rQZcjysG2zdtBIQqwwfzGg0E8VSvBdFfjQGCyHsFx/lhBoPQ4wUbdzkAIWxzA9Jyev5EJnUBuCsbAvRW2QF2ZyMAaQddAus+AwGRN6D8AC5K/vkK8vnignD+EC52+
lpc_rms=-10.51
offset=4616
pitch_keycenter=f4
sample=Alto_shake_FF_F4.opus
</region>

<region>
hikey=f5
hivel=127
lokey=e5
loop_end=144264
loop_mode=loop_continuous
loop_start=62760
loop_xfade=17713
lovel=1
lpc=iwLzQFAvdcEJzolBSFlmwWHANEE918TAtbDXP9YT879B8pxATLmgwOzQTUDD7Hq/dHyuPY/JhD+loyS+HpiCO2qCLj/TNda+6Pk4P1Klmr8tdQNAJGLfv1telT+TW6a9
lpc_rms=-17.23
offset=195
pitch_keycenter=f5
sample=Alto_shake_FF_F5.opus
</region>

<region>
hikey=g3
hivel=127
lokey=f#3
loop_end=149419
loop_mode=loop_continuous
loop_start=64070
loop_xfade=18082
lovel=1
lpc=nviDQcGFKcIiLDxCAgz9wR/ZOUHgxjRAzxPOwK19O79LHxhB8BoMwY+/8D7YNwFBTYkjwc9QtECOWWu+qfrvvz0DTT9z5KW/tlI7QFd4RMBNSptAiuXMwOpSoEDEgeu/
lpc_rms=-12.05
offset=4879
pitch_keycenter=g3
sample=Alto_shake_FF_G3.opus
</region>

<region>
hikey=g4
hivel=127
lokey=f#4
loop_end=151908
loop_mode=loop_continuous
loop_start=66085
loop_xfade=18651
lovel=1
lpc=iykQQY/4pcE1CalBThp6wfkEHkEneYnApSz9P0dlncCebB1B1UEawT7VtUDke52/TiZawLIL0kAlZcbAtq8GQHHhbD52skQ/2c/nvexEIr+HwVO/3YMUQEA17L9MzQw/
lpc_rms=-10.45
offset=5227
pitch_keycenter=g4
sample=Alto_shake_FF_G4.opus
</region>

<region>
hikey=g5
hivel=127
lokey=f#5
loop_end=138417
loop_mode=loop_continuous
loop_start=60216
loop_xfade=16995
lovel=1
lpc=yn0jQTh8rcES8KJBPCgxwQ4WxEA0GmPAO4KLP6tJvT8fEcQ/e9JewLICZz+TnQdAva2IvuaRJ7/pax6/NuITQPj16L4WeZe+WK9kPnFcHr/WQ9I/zqhRP4zNF8AvP7g/
lpc_rms=-14.29
offset=3449
pitch_keycenter=g5
sample=Alto_shake_FF_G5.opus
</region>
</group>